<svg width="37" height="32" viewBox="0 0 37 32" fill="none" xmlns="http://www.w3.org/2000/svg">
<g clip-path="url(#clip0_4_101)">
<path d="M37 14.8572C37 23.0603 28.7172 29.7143 18.5025 29.7143C16.2247 29.7159 13.96 29.3733 11.7869 28.6984C8.86309 30.8017 5.35229 31.9585 1.73666 32.0101C1.39736 32.0103 1.06543 31.9123 0.781875 31.7281C0.498321 31.5439 0.275557 31.2816 0.141109 30.9736C0.0066599 30.6657 -0.0335669 30.3255 0.0253553 29.9952C0.0842776 29.6649 0.239794 29.3589 0.472688 29.1149C1.88514 27.5751 3.01998 25.8073 3.8279 23.8882C1.4269 21.4795 0.0576935 18.2485 0.00509616 14.8673C0.00509616 6.65904 8.2827 0.0101471 18.5025 0.0101471C28.7224 0.0101471 37 6.6489 37 14.8572ZM33.5317 14.8572C33.5317 8.55366 26.7904 3.42858 18.5025 3.42858C10.2146 3.42858 3.47336 8.55366 3.47336 14.8572C3.53629 17.3608 4.56365 19.7462 6.34562 21.5264L7.83567 23.0857L7.07009 25.0921C6.67994 26.09 6.19838 27.0506 5.6314 27.9619C7.1143 27.4811 8.51559 26.7825 9.7882 25.8895L11.1961 24.9041L12.8351 25.4121C14.663 25.9863 16.5692 26.2792 18.4871 26.2806C26.7904 26.2756 33.5317 21.1556 33.5317 14.8572ZM12.7221 14.8572C12.7221 15.3092 12.5865 15.7511 12.3324 16.127C12.0784 16.5029 11.7172 16.7959 11.2947 16.9689C10.8723 17.1419 10.4074 17.1871 9.95884 17.0989C9.51032 17.0107 9.09833 16.793 8.77496 16.4734C8.4516 16.1537 8.23138 15.7464 8.14216 15.3031C8.05294 14.8597 8.09872 14.4001 8.27372 13.9824C8.44872 13.5648 8.74509 13.2078 9.12533 12.9566C9.50556 12.7055 9.95259 12.5714 10.4099 12.5714C11.0231 12.5714 11.6113 12.8122 12.0449 13.2409C12.4785 13.6695 12.7221 14.2509 12.7221 14.8572V14.8572ZM20.8147 14.8572C20.8147 15.3092 20.6791 15.7511 20.425 16.127C20.171 16.5029 19.8099 16.7959 19.3874 16.9689C18.9649 17.1419 18.5 17.1871 18.0515 17.0989C17.6029 17.0107 17.1909 16.793 16.8676 16.4734C16.5442 16.1537 16.324 15.7464 16.2348 15.3031C16.1456 14.8597 16.1913 14.4001 16.3663 13.9824C16.5413 13.5648 16.8377 13.2078 17.2179 12.9566C17.5982 12.7055 18.0452 12.5714 18.5025 12.5714C19.1158 12.5714 19.7039 12.8122 20.1375 13.2409C20.5711 13.6695 20.8147 14.2509 20.8147 14.8572V14.8572ZM28.9073 14.8572C28.9073 15.3092 28.7717 15.7511 28.5177 16.127C28.2636 16.5029 27.9025 16.7959 27.48 16.9689C27.0575 17.1419 26.5926 17.1871 26.1441 17.0989C25.6956 17.0107 25.2836 16.793 24.9602 16.4734C24.6368 16.1537 24.4166 15.7464 24.3274 15.3031C24.2382 14.8597 24.284 14.4001 24.459 13.9824C24.634 13.5648 24.9303 13.2078 25.3106 12.9566C25.6908 12.7055 26.1378 12.5714 26.5952 12.5714C27.2084 12.5714 27.7965 12.8122 28.2301 13.2409C28.6637 13.6695 28.9073 14.2509 28.9073 14.8572V14.8572Z" fill="#BF2A26"/>
</g>
<defs>
<clipPath id="clip0_4_101">
<rect width="37" height="32" fill="white"/>
</clipPath>
</defs>
</svg>
