<svg width="37" height="37" viewBox="0 0 37 37" fill="none" xmlns="http://www.w3.org/2000/svg">
<g clip-path="url(#clip0_4_126)">
<path d="M36.8767 26.1325C36.7241 29.0681 36.049 31.7218 33.8888 33.8824C31.7285 36.043 29.0987 36.7299 26.1342 36.8708C23.1698 37.0117 13.9242 37.0469 10.8716 36.8708C7.93653 36.724 5.28905 36.043 3.11706 33.8824C0.945083 31.7218 0.270027 29.0915 0.129142 26.1325C-0.0410943 23.0736 -0.0410943 13.9205 0.129142 10.8675C0.281768 7.93191 0.950953 5.27815 3.11706 3.11756C5.28318 0.956978 7.91305 0.275914 10.8716 0.135006C13.9242 -0.0352569 23.0817 -0.0352569 26.1342 0.135006C29.1867 0.30527 31.7227 0.962855 33.8888 3.12344C36.0549 5.28402 36.7358 7.91431 36.8767 10.8792C37.0469 13.9499 37.0469 23.0736 36.8767 26.1325ZM33.6716 18.5C33.6716 15.811 33.8946 10.0279 32.9261 7.59138C32.6123 6.79378 32.1376 6.06937 31.5317 5.4633C30.9257 4.85723 30.2014 4.38249 29.4039 4.06869C26.9795 3.11169 21.1856 3.32891 18.5029 3.32891C15.8202 3.32891 10.0322 3.10582 7.59605 4.06869C6.79911 4.38341 6.07531 4.85849 5.46945 5.46444C4.86359 6.0704 4.38859 6.79431 4.07391 7.59138C3.11707 10.022 3.32842 15.811 3.32842 18.5C3.32842 21.189 3.10533 26.9721 4.07391 29.4086C4.38767 30.2062 4.86233 30.9306 5.46831 31.5367C6.07428 32.1427 6.79857 32.6175 7.59605 32.9313C10.0263 33.8883 15.8144 33.6711 18.5029 33.6711C21.1915 33.6711 26.9737 33.8942 29.4039 32.9313C30.2014 32.6175 30.9257 32.1427 31.5317 31.5367C32.1376 30.9306 32.6123 30.2062 32.9261 29.4086C33.8946 26.9779 33.6716 21.1948 33.6716 18.5ZM27.9892 18.5C27.9892 20.3767 27.4327 22.2113 26.3901 23.7717C25.3474 25.3321 23.8656 26.5482 22.1318 27.2661C20.3981 27.984 18.4904 28.1716 16.6501 27.805C14.8098 27.4385 13.1195 26.5342 11.7931 25.2068C10.4666 23.8793 9.56358 22.1882 9.19821 20.3474C8.83284 18.5065 9.02155 16.5987 9.74045 14.8651C10.4593 13.1315 11.6761 11.6502 13.2369 10.6083C14.7977 9.56651 16.6323 9.01106 18.5088 9.01222C19.7547 9.01067 20.9887 9.25506 22.14 9.73139C23.2913 10.2077 24.3373 10.9066 25.218 11.788C26.0987 12.6694 26.7968 13.716 27.2724 14.8678C27.7479 16.0196 27.9915 17.2539 27.9892 18.5V18.5ZM24.6725 18.5C24.6725 17.2793 24.3105 16.0861 23.6323 15.0712C22.9542 14.0563 21.9903 13.2654 20.8626 12.7985C19.7349 12.3317 18.4941 12.2098 17.2971 12.4484C16.1002 12.687 15.0009 13.2752 14.1383 14.1388C13.2757 15.0024 12.6886 16.1024 12.4512 17.2998C12.2138 18.4971 12.3368 19.738 12.8046 20.8654C13.2725 21.9929 14.0642 22.9562 15.0795 23.6335C16.0949 24.3108 17.2883 24.6717 18.5088 24.6706C20.1441 24.669 21.7118 24.0182 22.8676 22.8612C24.0233 21.7041 24.6725 20.1355 24.6725 18.5V18.5ZM28.3825 10.8675C27.9446 10.8687 27.5161 10.7398 27.1514 10.4973C26.7867 10.2548 26.5021 9.90954 26.3337 9.5052C26.1653 9.10085 26.1206 8.65561 26.2054 8.22586C26.2901 7.79612 26.5004 7.40116 26.8097 7.09102C27.119 6.78088 27.5133 6.5695 27.9427 6.48362C28.3722 6.39774 28.8175 6.44122 29.2222 6.60857C29.6269 6.77593 29.9729 7.05962 30.2163 7.42374C30.4598 7.78786 30.5897 8.21603 30.5897 8.65405C30.5835 9.23545 30.3482 9.79096 29.935 10.1999C29.5217 10.6088 28.9639 10.8382 28.3825 10.8381V10.8675Z" fill="#BF2A26"/>
</g>
<defs>
<clipPath id="clip0_4_126">
<rect width="37" height="37" fill="white"/>
</clipPath>
</defs>
</svg>
