<svg width="156" height="211" viewBox="0 0 156 211" fill="none" xmlns="http://www.w3.org/2000/svg">
<g clip-path="url(#clip0_90_309)">
<path d="M155.193 79.7907C155.026 96.0715 149.573 111.584 139.409 125.672C129.795 138.992 120.677 152.675 111.342 166.201C102.08 179.631 92.8176 193.059 83.5552 206.486C80.1316 211.428 75.8468 211.433 72.4285 206.486C54.0778 179.894 35.824 153.238 17.371 126.706C12.9408 120.336 8.79583 113.879 6.01819 106.599C1.78824 95.7879 0.104267 84.1394 1.0981 72.5651C3.46663 45.9195 16.1706 25.6389 38.7254 11.6477C49.1093 5.2014 60.559 1.9052 72.7461 1.01755C107.644 -1.46678 139.339 20.1019 150.8 52.4848C153.761 60.9499 155.176 69.6911 155.193 79.7907ZM77.9838 109.803C96.9105 109.57 111.509 94.648 111.682 76.0561C111.854 57.4643 96.7544 42.4068 78.4306 42.1091C60.812 41.8222 44.4745 56.0408 44.3938 75.7963C44.2861 94.3774 58.8902 109.516 77.9838 109.803Z" fill="#BF2A26" stroke="#BF2A26" stroke-width="3" stroke-miterlimit="10"/>
</g>
<defs>
<clipPath id="clip0_90_309">
<rect width="156" height="211" fill="white"/>
</clipPath>
</defs>
</svg>
