<svg width="255" height="83" viewBox="0 0 255 83" fill="none" xmlns="http://www.w3.org/2000/svg">
<g clip-path="url(#clip0_158_533)">
<path d="M114.849 75.4647C114.848 75.4525 114.85 75.4403 114.855 75.4289C114.859 75.4175 114.866 75.4072 114.874 75.3986C114.883 75.39 114.894 75.3832 114.905 75.3788C114.916 75.3744 114.929 75.3723 114.941 75.3729H117.256C118.362 75.3729 119.1 75.8392 119.409 76.7683C119.63 77.8948 119.63 79.0533 119.409 80.1798C119.107 81.1089 118.347 81.5753 117.256 81.5753H114.941C114.929 81.5758 114.916 81.5738 114.905 81.5693C114.894 81.5649 114.883 81.5582 114.874 81.5495C114.866 81.5409 114.859 81.5306 114.855 81.5192C114.85 81.5078 114.848 81.4957 114.849 81.4835V75.4647ZM116.25 80.3781H116.954C117.577 80.3781 117.953 80.1982 118.108 79.6951C118.245 78.8868 118.245 78.0613 118.108 77.253C117.953 76.7499 117.577 76.57 116.954 76.57H116.25C116.213 76.57 116.194 76.57 116.194 76.6214V80.323C116.193 80.3306 116.194 80.3383 116.196 80.3455C116.198 80.3528 116.202 80.3594 116.208 80.3648C116.213 80.3702 116.22 80.3742 116.227 80.3765C116.234 80.3789 116.242 80.3794 116.25 80.3781Z" fill="#BF2A26"/>
<path d="M124.28 75.4647C124.279 75.4525 124.281 75.4403 124.285 75.4289C124.29 75.4175 124.297 75.4072 124.305 75.3986C124.314 75.39 124.324 75.3832 124.336 75.3788C124.347 75.3744 124.359 75.3723 124.372 75.3729H128.361C128.373 75.3723 128.385 75.3744 128.397 75.3788C128.408 75.3832 128.419 75.39 128.427 75.3986C128.436 75.4072 128.443 75.4175 128.447 75.4289C128.452 75.4403 128.454 75.4525 128.453 75.4647V76.4415C128.454 76.4537 128.452 76.4658 128.447 76.4772C128.443 76.4886 128.436 76.4989 128.427 76.5076C128.419 76.5162 128.408 76.5229 128.397 76.5274C128.385 76.5318 128.373 76.5338 128.361 76.5333H125.681C125.673 76.532 125.665 76.5325 125.658 76.5348C125.651 76.5372 125.644 76.5412 125.639 76.5466C125.633 76.552 125.629 76.5586 125.627 76.5659C125.624 76.5731 125.624 76.5808 125.625 76.5884V77.8186C125.624 77.8261 125.624 77.8338 125.627 77.8411C125.629 77.8483 125.633 77.8549 125.639 77.8603C125.644 77.8657 125.651 77.8698 125.658 77.8721C125.665 77.8744 125.673 77.8749 125.681 77.8736H127.915C127.927 77.8726 127.939 77.8741 127.95 77.8781C127.962 77.8821 127.972 77.8885 127.981 77.8969C127.99 77.9052 127.997 77.9153 128.001 77.9265C128.005 77.9377 128.008 77.9497 128.007 77.9618V78.9313C128.008 78.9433 128.005 78.9553 128.001 78.9665C127.997 78.9777 127.99 78.9878 127.981 78.9962C127.972 79.0045 127.962 79.0109 127.95 79.0149C127.939 79.0189 127.927 79.0204 127.915 79.0194H125.681C125.673 79.0181 125.665 79.0186 125.658 79.021C125.651 79.0233 125.644 79.0273 125.639 79.0327C125.633 79.0381 125.629 79.0447 125.627 79.052C125.624 79.0592 125.624 79.067 125.625 79.0745V80.3598C125.624 80.3673 125.624 80.375 125.627 80.3823C125.629 80.3895 125.633 80.3961 125.639 80.4015C125.644 80.4069 125.651 80.411 125.658 80.4133C125.665 80.4156 125.673 80.4161 125.681 80.4148H128.361C128.373 80.4143 128.385 80.4163 128.397 80.4208C128.408 80.4252 128.419 80.4319 128.427 80.4406C128.436 80.4492 128.443 80.4595 128.447 80.4709C128.452 80.4823 128.454 80.4945 128.453 80.5066V81.4835C128.454 81.4957 128.452 81.5078 128.447 81.5192C128.443 81.5306 128.436 81.5409 128.427 81.5495C128.419 81.5582 128.408 81.5649 128.397 81.5693C128.385 81.5738 128.373 81.5758 128.361 81.5753H124.372C124.359 81.5758 124.347 81.5738 124.336 81.5693C124.324 81.5649 124.314 81.5582 124.305 81.5495C124.297 81.5409 124.29 81.5306 124.285 81.5192C124.281 81.5078 124.279 81.4957 124.28 81.4835V75.4647Z" fill="#BF2A26"/>
<path d="M132.815 80.8261C132.795 80.8051 132.784 80.7776 132.784 80.749C132.784 80.7204 132.795 80.6929 132.815 80.6719L133.511 79.8787C133.52 79.8687 133.53 79.8606 133.542 79.8551C133.554 79.8496 133.567 79.8467 133.58 79.8467C133.593 79.8467 133.605 79.8496 133.617 79.8551C133.629 79.8606 133.64 79.8687 133.648 79.8787C134.102 80.271 134.677 80.4965 135.277 80.5177C135.926 80.5177 136.295 80.2165 136.295 79.7832C136.295 79.416 136.074 79.192 135.333 79.0892L135.005 79.0451C133.74 78.8725 133.036 78.2776 133.036 77.1869C133.036 76.0963 133.895 75.2884 135.248 75.2884C136.005 75.2729 136.746 75.4995 137.364 75.9347C137.416 75.9714 137.427 76.0082 137.383 76.0706L136.822 76.9042C136.808 76.9241 136.787 76.9378 136.763 76.9426C136.739 76.9474 136.714 76.9428 136.693 76.9299C136.27 76.6309 135.766 76.4658 135.248 76.4562C134.699 76.4562 134.415 76.7389 134.415 77.1319C134.415 77.5248 134.673 77.7121 135.384 77.8149L135.716 77.859C136.995 78.0316 137.674 78.6154 137.674 79.7392C137.674 80.8629 136.841 81.6891 135.229 81.6891C134.346 81.7017 133.488 81.3951 132.815 80.8261Z" fill="#BF2A26"/>
<path d="M142.245 75.4646C142.244 75.4526 142.246 75.4405 142.25 75.4292C142.254 75.4178 142.26 75.4074 142.269 75.3987C142.277 75.39 142.287 75.3832 142.299 75.3787C142.31 75.3743 142.322 75.3723 142.334 75.3728H143.499C143.511 75.3723 143.523 75.3743 143.534 75.3787C143.546 75.3832 143.556 75.39 143.564 75.3987C143.573 75.4074 143.579 75.4178 143.583 75.4292C143.587 75.4405 143.589 75.4526 143.587 75.4646V81.4835C143.589 81.4955 143.587 81.5076 143.583 81.5189C143.579 81.5303 143.573 81.5407 143.564 81.5494C143.556 81.5581 143.546 81.5649 143.534 81.5694C143.523 81.5738 143.511 81.5758 143.499 81.5753H142.334C142.322 81.5758 142.31 81.5738 142.299 81.5694C142.287 81.5649 142.277 81.5581 142.269 81.5494C142.26 81.5407 142.254 81.5303 142.25 81.5189C142.246 81.5076 142.244 81.4955 142.245 81.4835V75.4646Z" fill="#BF2A26"/>
<path d="M148.259 78.4722C148.219 77.9022 148.278 77.3297 148.432 76.7793C148.753 75.7768 149.612 75.2737 150.722 75.2737C151.831 75.2737 152.642 75.8466 152.934 76.5957C152.941 76.6067 152.947 76.6192 152.949 76.6325C152.951 76.6457 152.951 76.6592 152.947 76.6722C152.944 76.6852 152.937 76.6972 152.929 76.7074C152.92 76.7177 152.909 76.7259 152.897 76.7316L151.92 77.1539C151.857 77.1539 151.809 77.1539 151.791 77.1098C151.695 76.9104 151.543 76.7435 151.353 76.6298C151.163 76.5162 150.943 76.4609 150.722 76.4708C150.501 76.4545 150.281 76.5141 150.099 76.6398C149.917 76.7655 149.784 76.9495 149.722 77.1612C149.623 77.5945 149.59 78.0401 149.623 78.4832C149.59 78.93 149.624 79.3792 149.722 79.8162C149.787 80.0295 149.923 80.214 150.109 80.3385C150.294 80.463 150.517 80.5198 150.74 80.4993C150.954 80.5156 151.167 80.4621 151.347 80.3467C151.527 80.2314 151.665 80.0606 151.739 79.8603C151.791 79.6614 151.814 79.4562 151.809 79.2507C151.81 79.2432 151.81 79.2355 151.808 79.2282C151.805 79.2209 151.801 79.2143 151.796 79.2089C151.79 79.2035 151.784 79.1995 151.776 79.1972C151.769 79.1949 151.761 79.1944 151.754 79.1956H150.913C150.901 79.1962 150.889 79.1941 150.877 79.1897C150.866 79.1853 150.856 79.1785 150.847 79.1699C150.838 79.1613 150.831 79.1509 150.827 79.1396C150.823 79.1282 150.821 79.116 150.821 79.1038V78.2188C150.821 78.2066 150.823 78.1945 150.827 78.1831C150.831 78.1717 150.838 78.1614 150.847 78.1527C150.856 78.1441 150.866 78.1374 150.877 78.1329C150.889 78.1285 150.901 78.1265 150.913 78.127H153.055C153.068 78.1265 153.08 78.1285 153.091 78.1329C153.103 78.1374 153.113 78.1441 153.122 78.1527C153.13 78.1614 153.137 78.1717 153.142 78.1831C153.146 78.1945 153.148 78.2066 153.147 78.2188V78.7293C153.161 79.1993 153.109 79.669 152.993 80.1247C152.842 80.5985 152.537 81.0085 152.125 81.2893C151.714 81.5702 151.219 81.7057 150.722 81.6744C149.615 81.6744 148.753 81.1713 148.432 80.1688C148.278 79.6172 148.219 79.0434 148.259 78.4722Z" fill="#BF2A26"/>
<path d="M157.837 75.4647C157.837 75.4525 157.839 75.4403 157.843 75.4289C157.848 75.4175 157.854 75.4072 157.863 75.3986C157.872 75.39 157.882 75.3832 157.893 75.3788C157.905 75.3744 157.917 75.3723 157.929 75.3729H159.035C159.068 75.3723 159.1 75.3805 159.127 75.3967C159.155 75.4129 159.178 75.4364 159.194 75.4647L161.376 79.3572H161.417V75.4647C161.417 75.4525 161.419 75.4403 161.423 75.4289C161.427 75.4175 161.434 75.4072 161.443 75.3986C161.452 75.39 161.462 75.3832 161.473 75.3788C161.485 75.3744 161.497 75.3723 161.509 75.3729H162.542C162.554 75.3723 162.566 75.3744 162.577 75.3788C162.589 75.3832 162.599 75.39 162.608 75.3986C162.617 75.4072 162.623 75.4175 162.628 75.4289C162.632 75.4403 162.634 75.4525 162.634 75.4647V81.4835C162.634 81.4957 162.632 81.5079 162.628 81.5192C162.623 81.5306 162.617 81.5409 162.608 81.5496C162.599 81.5582 162.589 81.5649 162.577 81.5694C162.566 81.5738 162.554 81.5758 162.542 81.5753H161.435C161.403 81.5767 161.371 81.5688 161.343 81.5526C161.315 81.5363 161.292 81.5123 161.277 81.4835L159.065 77.5909H159.021V81.4835C159.021 81.4957 159.019 81.5079 159.015 81.5192C159.01 81.5306 159.003 81.5409 158.995 81.5496C158.986 81.5582 158.976 81.5649 158.964 81.5694C158.953 81.5738 158.941 81.5758 158.928 81.5753H157.896C157.884 81.5758 157.872 81.5738 157.86 81.5694C157.849 81.5649 157.838 81.5582 157.83 81.5496C157.821 81.5409 157.814 81.5306 157.81 81.5192C157.805 81.5079 157.803 81.4957 157.804 81.4835L157.837 75.4647Z" fill="#BF2A26"/>
<path d="M167.497 75.4646C167.496 75.4526 167.497 75.4405 167.501 75.4292C167.505 75.4178 167.512 75.4074 167.52 75.3987C167.528 75.39 167.538 75.3832 167.55 75.3787C167.561 75.3743 167.573 75.3723 167.585 75.3728H171.578C171.59 75.3723 171.602 75.3743 171.614 75.3788C171.625 75.3832 171.636 75.3899 171.644 75.3986C171.653 75.4072 171.66 75.4175 171.664 75.4289C171.669 75.4403 171.671 75.4524 171.67 75.4646V76.4415C171.671 76.4537 171.669 76.4658 171.664 76.4772C171.66 76.4886 171.653 76.4989 171.644 76.5075C171.636 76.5162 171.625 76.5229 171.614 76.5273C171.602 76.5318 171.59 76.5338 171.578 76.5333H168.894C168.857 76.5333 168.842 76.5516 168.842 76.5883V77.8186C168.842 77.8553 168.842 77.8736 168.894 77.8736H171.128C171.14 77.8726 171.152 77.8741 171.164 77.8781C171.175 77.8821 171.186 77.8885 171.194 77.8968C171.203 77.9052 171.21 77.9153 171.214 77.9265C171.219 77.9377 171.221 77.9497 171.22 77.9618V78.9312C171.221 78.9433 171.219 78.9553 171.214 78.9665C171.21 78.9777 171.203 78.9878 171.194 78.9962C171.186 79.0045 171.175 79.0109 171.164 79.0149C171.152 79.0189 171.14 79.0204 171.128 79.0194H168.894C168.857 79.0194 168.842 79.0377 168.842 79.0745V80.3598C168.842 80.3965 168.842 80.4148 168.894 80.4148H171.578C171.59 80.4143 171.602 80.4163 171.614 80.4208C171.625 80.4252 171.636 80.4319 171.644 80.4406C171.653 80.4492 171.66 80.4595 171.664 80.4709C171.669 80.4823 171.671 80.4944 171.67 80.5066V81.4835C171.671 81.4957 171.669 81.5078 171.664 81.5192C171.66 81.5306 171.653 81.5409 171.644 81.5495C171.636 81.5582 171.625 81.5649 171.614 81.5693C171.602 81.5738 171.59 81.5758 171.578 81.5753H167.585C167.573 81.5758 167.561 81.5738 167.55 81.5694C167.538 81.5649 167.528 81.5581 167.52 81.5494C167.512 81.5407 167.505 81.5303 167.501 81.5189C167.497 81.5076 167.496 81.4955 167.497 81.4835V75.4646Z" fill="#BF2A26"/>
<path d="M176.33 75.4647C176.33 75.4525 176.332 75.4403 176.336 75.4289C176.341 75.4175 176.347 75.4072 176.356 75.3986C176.365 75.39 176.375 75.3832 176.387 75.3788C176.398 75.3744 176.41 75.3723 176.422 75.3729H178.745C179.833 75.3729 180.589 75.8392 180.895 76.7683C181.116 77.8948 181.116 79.0533 180.895 80.1798C180.592 81.1089 179.833 81.5753 178.745 81.5753H176.422C176.41 81.5758 176.398 81.5738 176.387 81.5693C176.375 81.5649 176.365 81.5582 176.356 81.5495C176.347 81.5409 176.341 81.5306 176.336 81.5192C176.332 81.5078 176.33 81.4957 176.33 81.4835V75.4647ZM177.731 80.3781H178.435C179.059 80.3781 179.435 80.1982 179.589 79.6951C179.722 78.8864 179.722 78.0617 179.589 77.253C179.435 76.7499 179.059 76.57 178.435 76.57H177.731C177.694 76.57 177.676 76.57 177.676 76.6214V80.323C177.675 80.3306 177.675 80.3383 177.678 80.3455C177.68 80.3528 177.684 80.3594 177.689 80.3648C177.695 80.3702 177.701 80.3742 177.709 80.3765C177.716 80.3789 177.724 80.3794 177.731 80.3781Z" fill="#BF2A26"/>
<path d="M191.583 75.4647C191.582 75.4525 191.584 75.4403 191.589 75.4289C191.593 75.4175 191.6 75.4072 191.609 75.3986C191.617 75.39 191.628 75.3832 191.639 75.3788C191.65 75.3744 191.663 75.3723 191.675 75.3729H194.101C195.454 75.3729 196.088 76.0412 196.088 77.0254C196.102 77.2925 196.041 77.5583 195.911 77.7922C195.78 78.026 195.586 78.2185 195.351 78.3474V78.3657C195.613 78.4915 195.832 78.6918 195.981 78.9415C196.129 79.1911 196.2 79.4789 196.184 79.7685C196.184 80.9914 195.369 81.5753 194.023 81.5753H191.66C191.648 81.5758 191.636 81.5738 191.624 81.5693C191.613 81.5649 191.602 81.5582 191.594 81.5495C191.585 81.5409 191.578 81.5306 191.574 81.5192C191.569 81.5078 191.567 81.4957 191.568 81.4835L191.583 75.4647ZM193.935 77.9067C194.447 77.9067 194.75 77.6349 194.75 77.1722C194.75 76.7095 194.447 76.4378 193.935 76.4378H192.984C192.976 76.4365 192.968 76.4371 192.961 76.4394C192.954 76.4417 192.947 76.4457 192.942 76.4511C192.936 76.4565 192.932 76.4631 192.93 76.4704C192.928 76.4776 192.927 76.4854 192.928 76.4929V77.8333C192.928 77.87 192.928 77.8847 192.984 77.8847L193.935 77.9067ZM192.984 80.4773H194.009C194.117 80.4878 194.227 80.4756 194.33 80.4415C194.434 80.4073 194.529 80.352 194.61 80.279C194.69 80.206 194.755 80.117 194.799 80.0177C194.843 79.9184 194.866 79.811 194.866 79.7024C194.866 79.5938 194.843 79.4864 194.799 79.3871C194.755 79.2878 194.69 79.1988 194.61 79.1258C194.529 79.0529 194.434 78.9975 194.33 78.9634C194.227 78.9292 194.117 78.917 194.009 78.9276H192.984C192.976 78.9263 192.968 78.9268 192.961 78.9292C192.954 78.9315 192.947 78.9355 192.942 78.9409C192.936 78.9463 192.932 78.9529 192.93 78.9602C192.928 78.9674 192.927 78.9751 192.928 78.9827V80.4222C192.925 80.4304 192.923 80.4394 192.925 80.4483C192.926 80.4572 192.929 80.4656 192.935 80.4725C192.941 80.4794 192.949 80.4846 192.957 80.4874C192.966 80.4902 192.975 80.4905 192.984 80.4883V80.4773Z" fill="#BF2A26"/>
<path d="M201.972 81.5606C201.96 81.5611 201.948 81.5591 201.936 81.5547C201.925 81.5502 201.915 81.5435 201.906 81.5349C201.897 81.5262 201.89 81.5159 201.886 81.5045C201.882 81.4932 201.88 81.481 201.88 81.4688V79.0892L200.037 75.45C200.037 75.4059 200.037 75.3582 200.103 75.3582H201.29C201.32 75.3569 201.35 75.3652 201.375 75.3816C201.4 75.3981 201.42 75.422 201.43 75.45L202.536 77.7121H202.566L203.672 75.45C203.681 75.422 203.7 75.3978 203.725 75.3813C203.749 75.3647 203.779 75.3566 203.808 75.3582H204.962C205.025 75.3582 205.054 75.4059 205.025 75.45L203.182 79.0892V81.4688C203.182 81.481 203.18 81.4932 203.176 81.5045C203.171 81.5159 203.164 81.5262 203.156 81.5349C203.147 81.5435 203.137 81.5502 203.125 81.5547C203.114 81.5591 203.102 81.5611 203.089 81.5606H201.972Z" fill="#BF2A26"/>
<path d="M227.175 63.7942C222.847 70.8743 213.501 70.9331 208.741 64.5287V69.3026C199.756 69.2035 199.893 70.5585 193.459 63.6216V69.3026C189.503 68.6049 170.907 71.2526 168.33 67.0589C163.758 70.7605 157.579 69.9416 154.073 65.4394V69.2585C144.255 69.758 143.809 69.0382 137.217 62.0279V69.3026H123.642L119.933 65.6047V65.5386C116.685 69.3761 111.619 70.2868 107.877 68.267C108.614 80.301 106.011 81.9792 94.2355 81.388L86.8139 73.9957V69.1631C84.166 69.5212 81.4707 69.2523 78.9467 68.3781C76.4228 67.504 74.1414 66.0493 72.2878 64.1321C68.424 69.9379 59.8816 71.2562 55.2804 65.7222C54.5025 81.601 31.5777 87.4692 21.0961 77.2494C16.0488 71.8365 8.56083 67.0772 8.92952 58.8587C8.6272 50.0858 17.3797 43.6373 25.6973 45.1539C23.1423 42.4915 19.8462 39.6456 17.6747 36.851C10.1978 26.7596 19.5181 17.1531 30.9473 18.016C38.6454 17.7186 42.3544 22.0555 46.9519 26.8588C48.2459 25.0227 50.6645 24.0826 54.1633 24.0826C55.4869 24.2368 58.2188 23.5354 59.1037 24.9676C59.2143 25.0741 59.5055 25.3679 59.6899 25.5588C59.8337 25.702 59.9885 25.8563 60.1544 26.0289C60.7591 26.6348 61.3969 27.2627 61.9978 27.865C63.2219 29.0732 64.4643 30.3291 65.6847 31.5372L67.0193 32.8666C72.944 28.6766 82.2828 29.1539 86.7918 34.9414V30.3842H91.8944C85.5346 24.0018 91.3229 13.2568 100.334 13.9912C104.36 13.7709 111.471 16.4259 116.784 19.0589C121.157 7.50606 137.283 11.0792 143.93 17.9352C148.273 21.703 153.004 26.8441 149.332 32.6499C156.101 27.7732 168.05 29.9765 172.422 36.4948V30.1051C176.028 30.2593 182.119 29.1393 184.629 32.6426C189.525 28.313 196.685 29.9141 200.405 34.8459V30.1051H202.964C197.931 26.2823 201.047 17.8361 207.219 18.016C210.85 17.8618 213.007 21.1301 215.363 23.3555C218.11 26.2272 222.445 29.0695 221.306 33.5753C228.145 27.9678 237.465 30.7954 243.482 36.3332C247.637 40.189 253.005 44.9336 250.251 51.2462C251.671 52.7592 253.326 54.0554 254.576 55.7373C258.466 69.5156 234.383 73.511 227.175 63.7942Z" fill="#BF2A26"/>
<path d="M235.781 15.8054C230.936 16.9474 229.439 18.4384 228.293 23.2637C228.262 23.39 228.189 23.5022 228.086 23.5825C227.984 23.6628 227.857 23.7064 227.727 23.7064C227.596 23.7064 227.469 23.6628 227.367 23.5825C227.264 23.5022 227.192 23.39 227.161 23.2637C226.014 18.4384 224.517 16.9474 219.673 15.8054C219.546 15.7746 219.433 15.7023 219.353 15.6C219.272 15.4978 219.228 15.3716 219.228 15.2417C219.228 15.1117 219.272 14.9855 219.353 14.8833C219.433 14.7811 219.546 14.7088 219.673 14.678C224.517 13.5359 226.014 12.045 227.161 7.21964C227.192 7.09338 227.264 6.98111 227.367 6.90083C227.469 6.82055 227.596 6.77692 227.727 6.77692C227.857 6.77692 227.984 6.82055 228.086 6.90083C228.189 6.98111 228.262 7.09338 228.293 7.21964C229.439 12.045 230.936 13.5359 235.781 14.678C235.907 14.7088 236.02 14.7811 236.101 14.8833C236.181 14.9855 236.225 15.1117 236.225 15.2417C236.225 15.3716 236.181 15.4978 236.101 15.6C236.02 15.7023 235.907 15.7746 235.781 15.8054Z" fill="#BF2A26"/>
<path d="M13.8478 42.6605C9.79223 43.6189 8.54239 44.8638 7.58013 48.9033C7.55503 49.0097 7.49458 49.1045 7.40858 49.1723C7.32258 49.2402 7.21609 49.2771 7.10637 49.2771C6.99665 49.2771 6.89016 49.2402 6.80416 49.1723C6.71816 49.1045 6.65771 49.0097 6.63261 48.9033C5.67403 44.8638 4.42051 43.6189 0.36499 42.6605C0.259893 42.6341 0.166641 42.5735 0.100021 42.4884C0.0334002 42.4032 -0.0027771 42.2984 -0.0027771 42.1904C-0.0027771 42.0825 0.0334002 41.9776 0.100021 41.8924C0.166641 41.8073 0.259893 41.7467 0.36499 41.7204C4.42051 40.7656 5.67035 39.517 6.63261 35.4775C6.65771 35.3712 6.71816 35.2764 6.80416 35.2085C6.89016 35.1406 6.99665 35.1037 7.10637 35.1037C7.21609 35.1037 7.32258 35.1406 7.40858 35.2085C7.49458 35.2764 7.55503 35.3712 7.58013 35.4775C8.53871 39.517 9.79223 40.7619 13.8478 41.7204C13.9528 41.7467 14.0461 41.8073 14.1127 41.8924C14.1793 41.9776 14.2155 42.0825 14.2155 42.1904C14.2155 42.2984 14.1793 42.4032 14.1127 42.4884C14.0461 42.5735 13.9528 42.6341 13.8478 42.6605Z" fill="#BF2A26"/>
<path d="M81.35 22.8303C78.3563 23.5354 77.4309 24.4572 76.7194 27.439C76.6943 27.5112 76.6473 27.5738 76.5848 27.618C76.5224 27.6623 76.4476 27.6861 76.371 27.6861C76.2943 27.6861 76.2195 27.6623 76.1571 27.618C76.0947 27.5738 76.0476 27.5112 76.0226 27.439C75.311 24.4572 74.3856 23.5354 71.3919 22.8303C71.3181 22.8062 71.2539 22.7595 71.2084 22.6968C71.1628 22.6342 71.1383 22.5588 71.1383 22.4815C71.1383 22.4041 71.1628 22.3288 71.2084 22.2661C71.2539 22.2035 71.3181 22.1568 71.3919 22.1326C74.3856 21.4239 75.311 20.5058 76.0226 17.5203C76.0476 17.4481 76.0947 17.3855 76.1571 17.3413C76.2195 17.297 76.2943 17.2732 76.371 17.2732C76.4476 17.2732 76.5224 17.297 76.5848 17.3413C76.6473 17.3855 76.6943 17.4481 76.7194 17.5203C77.4309 20.5058 78.3563 21.4239 81.35 22.1326C81.4238 22.1568 81.488 22.2035 81.5335 22.2661C81.5791 22.3288 81.6036 22.4041 81.6036 22.4815C81.6036 22.5588 81.5791 22.6342 81.5335 22.6968C81.488 22.7595 81.4238 22.8062 81.35 22.8303Z" fill="#BF2A26"/>
<path d="M215.543 5.58181C212.546 6.29055 211.624 7.20861 210.913 10.1941C210.888 10.2663 210.841 10.3289 210.778 10.3732C210.716 10.4175 210.641 10.4413 210.564 10.4413C210.488 10.4413 210.413 10.4175 210.351 10.3732C210.288 10.3289 210.241 10.2663 210.216 10.1941C209.504 7.20861 208.579 6.29055 205.585 5.58181C205.512 5.55766 205.447 5.51093 205.402 5.44828C205.356 5.38564 205.332 5.31028 205.332 5.23294C205.332 5.1556 205.356 5.08024 205.402 5.0176C205.447 4.95496 205.512 4.90822 205.585 4.88408C208.579 4.179 209.504 3.25727 210.216 0.275405C210.241 0.203249 210.288 0.140673 210.351 0.0963823C210.413 0.0520916 210.488 0.0282898 210.564 0.0282898C210.641 0.0282898 210.716 0.0520916 210.778 0.0963823C210.841 0.140673 210.888 0.203249 210.913 0.275405C211.624 3.25727 212.546 4.179 215.543 4.88408C215.617 4.90822 215.681 4.95496 215.727 5.0176C215.773 5.08024 215.797 5.1556 215.797 5.23294C215.797 5.31028 215.773 5.38564 215.727 5.44828C215.681 5.51093 215.617 5.55766 215.543 5.58181Z" fill="#BF2A26"/>
<path d="M14.4303 68.245C13.0948 67.0206 12.0342 65.5289 11.3181 63.8676C10.6021 62.2063 10.2467 60.4131 10.2752 58.6054C10.2435 57.0819 10.5159 55.5673 11.0766 54.1495C11.6374 52.7317 12.4753 51.439 13.5418 50.3465C14.7622 49.1295 16.2151 48.1684 17.8146 47.52C19.4142 46.8717 21.1279 46.5491 22.8547 46.5714C25.7599 46.5714 28.1785 47.4564 30.1141 49.2632C31.6847 50.8312 32.4515 52.8399 32.4515 55.2893C32.4869 56.2021 32.3252 57.1117 31.9772 57.9568C31.6293 58.802 31.1033 59.5628 30.4348 60.1881C29.5199 61.0165 28.3274 61.4749 27.0909 61.4734C25.6517 61.4572 24.2761 60.8805 23.2584 59.8668C22.2406 58.8531 21.6617 57.483 21.6454 56.0495C21.641 55.3948 21.7674 54.7459 22.0172 54.1403C22.267 53.5348 22.6352 52.9848 23.1005 52.5224C23.5658 52.06 24.1187 51.6945 24.7272 51.447C25.3357 51.1995 25.9875 51.0751 26.6448 51.0809C26.9424 51.0878 27.2393 51.1148 27.5333 51.1617C26.6462 50.7567 25.6849 50.5379 24.7092 50.5191C22.8953 50.5191 21.391 51.4041 20.285 53.2108C19.3254 54.972 18.8402 56.9507 18.8766 58.9542C18.8766 62.4465 19.9827 65.2999 22.1431 67.4665C23.5444 68.7987 25.4044 69.5464 27.3416 69.556C28.3206 69.555 29.2887 69.351 30.1843 68.9572C31.0798 68.5633 31.8834 67.9881 32.5437 67.2682C34.4387 65.0979 35.4084 62.285 35.4084 58.7926C35.444 56.1395 34.8636 53.5141 33.7124 51.1213C32.7972 49.3569 31.6298 47.734 30.2468 46.3033C28.061 44.1591 25.7594 42.1352 23.3524 40.2405C21.2141 38.4043 19.6435 36.8253 18.6738 35.4996C17.2364 33.6299 16.4448 31.3472 16.4175 28.9924C16.4175 25.6874 17.9881 23.2123 21.1735 21.523C23.5921 20.2377 26.7038 19.5951 30.4459 19.5951C34.2765 19.5951 37.3808 20.5609 39.722 22.4888C41.6981 24.3249 42.6714 26.4218 42.6714 28.7941C42.6898 30.2111 42.236 31.5942 41.381 32.727C40.9835 33.2793 40.4558 33.7258 39.8445 34.0273C39.2331 34.3289 38.5568 34.4763 37.8749 34.4567C37.1309 34.4525 36.3965 34.289 35.7216 33.9773C35.0467 33.6656 34.4469 33.2129 33.9631 32.6499C33.106 31.6854 32.6326 30.442 32.6322 29.1539C32.6206 28.5344 32.7363 27.919 32.9721 27.3456C33.208 26.7722 33.559 26.2529 34.0037 25.8196C34.4304 25.3713 34.9453 25.0155 35.5162 24.7741C36.087 24.5328 36.7017 24.4111 37.3218 24.4168L37.8048 24.4571C36.4739 23.1719 34.6194 22.5292 32.2746 22.5292C30.1362 22.5292 28.5251 23.2637 27.5149 24.6958C26.946 25.5533 26.6504 26.5619 26.6669 27.5896C26.6669 30.4392 28.6836 33.6525 32.717 37.3063L37.2334 41.3238C39.6912 43.5271 41.4241 45.4147 42.4318 46.9864C44.5702 49.9572 45.6172 53.0493 45.6172 56.2221C45.6145 58.2944 45.2515 60.3507 44.5444 62.2996C43.0696 65.9719 40.393 68.7665 36.5218 70.7458C33.6805 72.1617 30.5444 72.8913 27.3674 72.8757C22.1321 72.8647 17.8148 71.337 14.4303 68.245Z" fill="white"/>
<path d="M49.7059 57.8048C48.8597 57.0538 48.1846 56.1311 47.7261 55.0986C47.2676 54.0662 47.0363 52.9479 47.0477 51.819V34.431H43.619V31.6988H47.0477C47.0477 29.9325 47.2874 28.6876 47.7335 28.0045C48.5777 26.4365 50.5539 25.6763 53.6582 25.6763H56.9247C56.9653 25.6763 56.9653 27.6814 56.9653 31.6988H60.3535C60.4127 32.1517 60.4263 32.6093 60.3941 33.0649C60.4263 33.5205 60.4127 33.9781 60.3535 34.431H56.9653V51.7786C56.9653 54.3088 57.7322 55.5537 59.2216 55.5537C60.7111 55.5537 62.1711 53.8682 63.4578 50.453C63.4984 50.3318 63.4984 50.295 63.5352 50.295H65.3787C64.0072 54.2684 62.1121 57.0006 59.653 58.407C58.2696 59.2984 56.6624 59.7845 55.015 59.8098C53.0594 59.8064 51.1721 59.0936 49.7059 57.8048Z" fill="white"/>
<path d="M66.0755 55.5941C63.2145 52.7445 61.8024 49.4505 61.8024 45.635C61.7725 43.4178 62.2411 41.222 63.1739 39.2086C64.6447 36.2251 67.1948 33.9068 70.3116 32.7197C72.0194 32.053 73.838 31.7129 75.6723 31.7172C78.6955 31.7172 81.2357 32.5618 83.2524 34.2878C84.1095 35.0381 84.7917 35.9658 85.2515 37.006C85.7113 38.0463 85.9375 39.1739 85.9143 40.3103C85.9143 42.3594 84.9447 44.2873 82.9649 46.094C80.6335 47.9474 77.7256 48.9319 74.7432 48.8776C73.7979 48.8754 72.8545 48.7944 71.9228 48.6352C71.9228 48.8372 72.0039 49.3991 72.1256 50.3612C72.3777 51.6574 72.8542 52.9 73.5339 54.0334C74.8649 55.8696 76.9221 56.8023 79.6246 56.8023C81.6781 56.8023 83.6801 56.0385 85.5899 54.5145C86.9243 53.3162 88.0308 51.8881 88.8564 50.2988H90.6298L90.5892 50.3355C89.425 53.3292 87.3177 55.8663 84.5834 57.5661C82.2179 59.0514 79.475 59.8313 76.6788 59.8135C72.724 59.855 68.9129 58.3384 66.0755 55.5941ZM75.5138 45.837C76.5785 44.9015 77.3374 43.6698 77.6927 42.3006C77.8143 41.7792 77.8549 40.4131 77.8549 38.2611C77.8549 35.5694 77.1692 34.2033 75.8382 34.2033C74.9091 34.2033 74.0243 34.8863 73.1357 36.2928C72.3271 37.5389 71.8835 39.4669 71.8048 42.0766V45.8113C71.8048 46.733 72.1735 47.1774 72.8924 47.1774C73.5339 47.1627 74.4077 46.7183 75.5138 45.837Z" fill="white"/>
<path d="M88.1707 71.8989V31.9852H93.0889C93.7893 31.9793 94.4828 32.123 95.1227 32.4068C95.7625 32.6907 96.3338 33.1079 96.7979 33.6304C97.275 34.1801 97.6317 34.823 97.8449 35.5179C99.9022 32.9878 102.24 31.7025 104.85 31.7025C106.301 31.7211 107.72 32.1228 108.964 32.8666C110.859 34.0711 112.39 35.9182 113.521 38.408C114.529 40.7248 115.032 43.228 114.996 45.7525C114.973 48.7041 114.136 51.5927 112.578 54.1032C111.864 55.2257 111.026 56.2642 110.078 57.1989C108.234 58.9249 106.45 59.8062 104.795 59.8062C102.9 59.8062 101.489 59.4855 100.562 58.8441C99.9575 58.4768 99.1095 57.6396 98.0625 56.2331V67.0368C98.0401 68.0439 97.718 69.0216 97.1371 69.8461C96.6631 70.4877 96.0429 71.0081 95.3276 71.3643C94.6123 71.7205 93.8223 71.9025 93.0226 71.8952L88.1707 71.8989ZM104.098 53.1447C104.861 50.8569 105.267 48.0036 105.267 44.6325C105.267 41.8599 104.983 39.5721 104.378 37.6846C103.854 36.0761 103.088 35.2719 102.166 35.2719C100.998 35.2719 99.9501 36.638 99.021 39.3701C98.3312 41.7437 98.0044 44.2073 98.0514 46.6779C98.0232 48.8495 98.3088 51.0138 98.8994 53.1043C99.5851 55.1535 100.47 56.1964 101.521 56.1964C102.571 56.1964 103.412 55.1938 104.098 53.1447Z" fill="white"/>
<path d="M117.562 59.8098V25.8746L115.789 25.1402C111.151 23.1817 108.005 21.8572 106.35 21.1668C102.966 19.8007 100.304 19.1177 98.409 19.1177C97.5771 19.0988 96.7513 19.263 95.9905 19.5988C96.886 19.5699 97.7758 19.7513 98.5879 20.1283C99.4 20.5053 100.112 21.0674 100.665 21.7691C101.323 22.6976 101.675 23.8058 101.676 24.9419C101.673 25.6407 101.532 26.332 101.26 26.9765C100.989 27.621 100.593 28.206 100.095 28.698C99.5971 29.1901 99.0065 29.5796 98.3573 29.8443C97.708 30.1091 97.0128 30.2438 96.3112 30.2409C94.4162 30.2409 92.8849 29.3584 91.7174 27.5932C90.8193 26.1093 90.439 24.3713 90.6358 22.6498C90.8325 20.9282 91.5951 19.3197 92.805 18.0748C94.5378 16.4259 96.8605 15.585 99.81 15.585C103.154 15.585 107.431 16.7895 112.592 19.1581L117.592 21.4459C117.658 20.8639 117.766 20.2872 117.912 19.72C118.801 16.7491 120.818 14.6596 123.922 13.4147C125.63 12.7499 127.449 12.4098 129.283 12.4122C133.032 12.4122 136.059 13.3743 138.437 15.35C139.169 15.9768 139.757 16.7539 140.16 17.6279C140.562 18.5019 140.771 19.4523 140.771 20.414C140.808 21.9999 140.286 23.5486 139.296 24.7913C138.929 25.232 138.493 25.6113 138.006 25.915C136.354 27.1195 134.016 27.7218 131.071 27.7218C129.855 27.7087 128.642 27.6019 127.443 27.4023V37.8021H127.498C127.939 36.9822 128.452 36.2031 129.032 35.4739C131.167 32.9437 133.545 31.6988 136.166 31.6988C138.111 31.699 139.997 32.3654 141.508 33.5864C142.404 34.41 143.116 35.4127 143.596 36.5289C144.076 37.6452 144.315 38.8499 144.295 40.0642V59.7842H139.373C138.582 59.789 137.802 59.6055 137.096 59.2491C136.391 58.8927 135.781 58.3736 135.318 57.735C134.736 56.9095 134.412 55.9306 134.389 54.9221V39.9026C134.389 37.2916 133.651 36.0064 132.177 36.0064C130.481 36.0064 128.91 38.0959 127.498 42.2712C127.458 42.352 127.458 48.2166 127.458 59.8209L117.562 59.8098ZM134.617 22.9442C135.11 22.0752 135.364 21.0924 135.355 20.0945C135.363 18.6153 134.881 17.1747 133.983 15.9963C133.659 15.5521 133.234 15.1898 132.744 14.9385C132.253 14.6872 131.711 14.554 131.159 14.5494C129.316 14.5494 128.136 15.7943 127.694 18.2841C127.519 19.4682 127.438 20.6641 127.45 21.8609C127.45 24.0642 127.45 25.1659 127.491 25.1659C128.207 25.3219 128.937 25.4031 129.67 25.4083C131.956 25.3936 133.607 24.5894 134.617 22.9442Z" fill="white"/>
<path d="M149.048 58.0839C148.173 57.2515 147.481 56.2472 147.017 55.1346C146.552 54.0221 146.325 52.8255 146.349 51.6208C146.386 50.2116 146.834 48.8436 147.639 47.6841C149.372 45.1539 152.115 43.5455 155.784 42.8625C158.364 42.2198 159.839 41.0557 160.3 39.4106C160.399 38.9077 160.439 38.395 160.418 37.8829C160.418 36.7592 160.097 35.8778 159.452 35.2719C158.807 34.666 157.841 34.3502 156.587 34.3502C155.645 34.3725 154.71 34.5207 153.807 34.7909C154.596 35.1762 155.235 35.8117 155.621 36.5976C155.983 37.1619 156.178 37.8158 156.185 38.4851C156.176 39.586 155.76 40.6449 155.017 41.4597C154.599 41.9244 154.088 42.2956 153.516 42.5488C152.944 42.802 152.324 42.9315 151.699 42.9286C150.693 42.9393 149.719 42.5827 148.959 41.926C148.477 41.5085 148.094 40.9887 147.839 40.4048C147.583 39.821 147.462 39.1877 147.484 38.5512C147.495 37.4174 147.845 36.3125 148.491 35.3784C149.475 34.0125 150.876 32.999 152.484 32.4884C153.855 31.9669 155.831 31.6841 158.412 31.6841C163.168 31.6841 166.475 32.8886 168.289 35.338C169.661 37.0677 170.347 39.4767 170.347 42.4879V59.7952H165.38C164.128 59.7962 162.926 59.3069 162.033 58.4328C161.496 57.9222 161.071 57.3073 160.783 56.626C158.571 58.8294 156.267 59.9311 153.848 59.9311C152.071 59.9395 150.357 59.2798 149.048 58.0839ZM158.766 55.7557C159.881 54.0787 160.457 52.1038 160.418 50.0931V42.7046C160.049 43.5051 159.128 44.3901 157.597 45.3926C157.104 45.73 156.632 46.0979 156.185 46.4943C154.976 47.618 154.372 49.1824 154.372 51.2315V53.8021C154.336 54.8157 154.592 55.8185 155.109 56.6921C155.237 56.9213 155.424 57.1127 155.651 57.2468C155.878 57.3809 156.136 57.4531 156.399 57.456C157.151 57.4413 157.922 56.8794 158.766 55.7557Z" fill="white"/>
<path d="M193.964 59.8098C192.83 59.8038 191.733 59.4067 190.86 58.6861C190.396 58.2497 189.99 57.7561 189.651 57.2172C189.266 56.4298 189.072 55.5629 189.087 54.6871V39.3297C189.087 38.1656 188.843 37.1998 188.32 36.5168C188.136 36.3019 187.907 36.1297 187.649 36.0123C187.391 35.895 187.11 35.8353 186.827 35.8374C186.209 35.8459 185.619 36.0889 185.175 36.5168C184.572 37.0866 184.067 37.7516 183.682 38.4851V59.8098H173.764V31.6988H178.804C179.816 31.7224 180.797 32.0445 181.625 32.6242C182.295 33.0719 182.827 33.6978 183.158 34.431C183.375 34.7709 183.512 35.1549 183.56 35.5547C185.699 32.9841 188.158 31.6988 190.982 31.6988C192.343 31.7043 193.684 32.0355 194.89 32.6646C196.363 33.4648 197.538 34.7182 198.237 36.2377C198.74 37.3186 198.993 38.4984 198.975 39.6896V59.8098H193.964Z" fill="white"/>
<path d="M203.314 28.1257C202.715 27.565 202.265 26.8645 202.005 26.0874C201.745 25.3103 201.684 24.4809 201.826 23.6742C201.968 22.8674 202.31 22.1086 202.82 21.4661C203.33 20.8237 203.993 20.3178 204.748 19.9941C205.503 19.6704 206.328 19.5391 207.147 19.6119C207.966 19.6848 208.754 19.9595 209.44 20.4114C210.126 20.8633 210.688 21.4781 211.076 22.2005C211.464 22.9228 211.665 23.7299 211.661 24.549C211.662 25.699 211.247 26.8107 210.492 27.6814C210.061 28.196 209.529 28.6175 208.928 28.9203C208.327 29.223 207.671 29.4006 206.999 29.4422C206.328 29.4838 205.654 29.3885 205.021 29.1622C204.387 28.9358 203.806 28.5832 203.314 28.1257ZM203.882 57.3238C202.489 55.8614 201.722 53.916 201.744 51.8999V31.7025H206.702C207.372 31.7085 208.034 31.8466 208.65 32.1088C209.265 32.371 209.823 32.7522 210.29 33.2302C210.559 33.5462 210.806 33.8812 211.027 34.2327C211.491 35.0226 211.715 35.9295 211.672 36.8436V51.9439C211.672 54.3933 212.439 55.6162 213.932 55.6162C214.317 55.5934 214.693 55.4884 215.034 55.3085C215.375 55.1286 215.673 54.8779 215.908 54.5733C216.834 53.5707 217.601 52.1643 218.246 50.3171C218.861 50.2886 219.476 50.3009 220.089 50.3538C219.395 52.4653 218.33 54.4372 216.944 56.178C214.887 58.6274 212.469 59.8319 209.726 59.8319C208.632 59.8307 207.549 59.6078 206.545 59.1766C205.54 58.7454 204.634 58.115 203.882 57.3238Z" fill="white"/>
<path d="M221.096 55.3958C218.393 52.5425 217.04 49.3293 217.04 45.6754C217.04 41.4193 218.449 37.9637 221.313 35.2719C223.898 32.9731 227.242 31.7013 230.707 31.6988C232.99 31.6477 235.245 32.2028 237.241 33.3073C239.858 34.9524 241.149 37.2806 241.149 40.2845C241.149 42.4144 240.181 44.3424 238.247 46.0683C235.95 47.9559 233.167 48.8813 229.981 48.8813C229.036 48.8808 228.092 48.7997 227.161 48.6389C227.22 49.4139 227.354 50.1814 227.563 50.9304C227.768 51.7433 228.079 52.526 228.488 53.2586C228.856 53.9005 229.303 54.4939 229.819 55.0249C231.117 56.2644 232.846 56.9565 234.645 56.9565C237.226 56.9565 239.644 55.7924 241.901 53.4642C241.59 53.4044 241.291 53.2953 241.016 53.1411C240.569 52.9072 240.19 52.5632 239.915 52.1419C239.641 51.7206 239.479 51.236 239.445 50.7346C239.412 50.2332 239.508 49.7317 239.725 49.278C239.942 48.8242 240.272 48.4335 240.684 48.1431C241.203 47.7794 241.822 47.5833 242.457 47.5813C242.966 47.5802 243.467 47.7088 243.911 47.955C244.356 48.2012 244.73 48.5568 244.998 48.9878C245.274 49.464 245.427 50.002 245.44 50.5521C245.44 52.7224 244.312 54.7312 242.096 56.5783C239.147 58.749 235.561 59.8912 231.895 59.8282C227.747 59.8099 224.16 58.3263 221.096 55.3958ZM229.682 46.5824C230.755 45.9798 231.642 45.0962 232.246 44.0275C232.85 42.9587 233.15 41.7456 233.111 40.5196V37.7874C233.111 36.5021 232.831 35.4996 232.226 34.7358C232.08 34.5669 231.901 34.4299 231.699 34.3333C231.497 34.2366 231.278 34.1823 231.054 34.1739C230.317 34.1739 229.605 34.655 228.842 35.6208C227.633 37.1852 227.028 39.3555 227.028 42.2051V45.7819C227.028 46.7036 227.397 47.148 228.075 47.148C228.654 47.1294 229.214 46.9375 229.682 46.5971V46.5824Z" fill="white"/>
</g>
<defs>
<clipPath id="clip0_158_533">
<rect width="255" height="82.3354" fill="white"/>
</clipPath>
</defs>
</svg>
