<svg width="46" height="56" viewBox="0 0 46 56" fill="none" xmlns="http://www.w3.org/2000/svg">
<g clip-path="url(#clip0_4_114)">
<path d="M45.9828 39.9595C46.6934 54.6463 26.0724 60.9532 16.5394 51.5741C12.2175 46.875 5.77059 42.7361 6.08126 35.5993C5.82379 27.9784 13.3314 22.3889 20.4769 23.689C-1.57225 6.0234 21.7625 -6.41932 34.5 3.53555C34.6871 3.70844 34.8553 3.8917 35.0269 4.06977C35.2123 4.24266 35.3822 4.42592 35.5522 4.60572C35.7375 4.77861 35.9075 4.96187 36.0774 5.13994C36.2628 5.31283 36.4327 5.49609 36.6026 5.6759C36.788 5.84878 36.9579 6.03204 37.1278 6.21012C37.3132 6.38301 37.4814 6.56627 37.6531 6.74607C37.8384 6.91896 38.0084 7.10049 38.1783 7.28029C38.3654 7.45318 38.5336 7.63644 38.7052 7.81624C38.8906 7.98913 39.0605 8.17066 39.2305 8.35047C39.4175 8.52335 39.5858 8.70661 39.7574 8.88642C39.9428 9.0593 40.1127 9.24084 40.2826 9.42064C48.4408 17.5152 38.9867 29.2405 30.5522 17.9596C36.1975 24.6676 46.0464 30.4005 45.9828 39.9595Z" fill="#BF2A26"/>
<path d="M11.2426 43.9705C8.8533 41.6693 7.67584 38.8772 7.67584 35.5993C7.67584 32.7743 8.61129 30.366 10.4822 28.4123C12.7324 26.2149 15.3997 25.1275 18.4807 25.1275C20.9746 25.1275 23.0532 25.8951 24.7147 27.4649C26.0655 28.8255 26.7229 30.5682 26.7229 32.6965C26.7229 34.4755 26.1342 35.8707 24.9928 36.953C24.2045 37.6703 23.1801 38.0677 22.1178 38.0681C20.8821 38.0551 19.7006 37.5549 18.8266 36.6749C17.9526 35.7949 17.4557 34.605 17.4423 33.3604C17.4416 32.794 17.5523 32.2332 17.7681 31.7102C17.9839 31.1872 18.3004 30.7125 18.6994 30.3135C19.0984 29.9145 19.572 29.5991 20.0927 29.3855C20.6135 29.172 21.1711 29.0645 21.7333 29.0693C21.9886 29.0752 22.2432 29.0983 22.4954 29.1385C21.7369 28.7902 20.9155 28.6025 20.0821 28.5869C18.5236 28.5869 17.2414 29.3546 16.2717 30.9244C15.4752 32.3542 15.0599 34.0364 15.0599 35.9122C15.0599 38.9481 15.9953 41.4238 17.8645 43.3083C19.2153 44.5289 20.7052 45.1219 22.3272 45.1219C24.0241 45.1219 25.5117 44.4592 26.7899 43.1337C28.417 41.2492 29.2478 38.8115 29.2478 35.7739C29.2478 33.331 28.7638 31.1059 27.794 29.1108C27.1366 27.7502 26.1308 26.355 24.816 24.9252C23.6385 23.7046 21.6646 21.9256 18.8944 19.6573C17.0578 18.0529 15.707 16.6923 14.8762 15.5409C13.5958 13.7618 12.9367 11.8791 12.9367 9.89089C12.9367 7.0296 14.2875 4.86678 17.0235 3.40242C19.102 2.28557 21.7676 1.72714 24.9893 1.72714C28.278 1.72714 30.9453 2.56392 32.9535 4.2392C34.6511 5.84359 35.4818 7.65718 35.4818 9.71627C35.4973 10.9461 35.1087 12.1466 34.3764 13.1308C34.0344 13.6099 33.5809 13.9972 33.0557 14.2588C32.5306 14.5204 31.9498 14.6484 31.3641 14.6315C30.0837 14.6315 28.9749 14.1128 28.0051 13.0616C27.2692 12.224 26.8626 11.1443 26.862 10.0257C26.8522 9.48799 26.9516 8.95391 27.1541 8.45624C27.3566 7.95857 27.6578 7.50781 28.0394 7.13161C28.4046 6.74276 28.8451 6.43361 29.3338 6.22335C29.8224 6.01309 30.3487 5.90619 30.8801 5.90929L31.2955 5.9456C30.1523 4.82874 28.5595 4.27032 26.5513 4.27032C24.7147 4.27032 23.3296 4.8979 22.4645 6.15479C21.9756 6.89826 21.7219 7.77349 21.7367 8.66512C21.7367 11.1426 23.4686 13.933 26.9323 17.1072L30.8097 20.5995C32.9232 22.5186 34.4108 24.1581 35.2724 25.5182C37.1073 28.0994 38.0084 30.7843 38.0084 33.5402C38.0108 35.3352 37.7059 37.1173 37.1073 38.808C35.8268 41.9823 33.5405 44.4252 30.2158 46.1333C27.7759 47.3629 25.0829 47.9966 22.3546 47.9832C17.8508 47.9832 14.1519 46.6571 11.2426 43.9705Z" fill="#FEF5DF"/>
<path d="M11.8948 19.9253C8.41046 20.7551 7.33942 21.8392 6.5224 25.3453C6.50081 25.4374 6.44898 25.5195 6.37531 25.5782C6.30163 25.637 6.21043 25.6689 6.11647 25.6689C6.02251 25.6689 5.9313 25.637 5.85763 25.5782C5.78395 25.5195 5.73212 25.4374 5.71054 25.3453C4.88666 21.8392 3.81218 20.7551 0.329566 19.9253C0.238121 19.9035 0.156645 19.8513 0.0983357 19.7771C0.0400265 19.7029 0.00830078 19.611 0.00830078 19.5164C0.00830078 19.4218 0.0400265 19.3299 0.0983357 19.2557C0.156645 19.1815 0.238121 19.1293 0.329566 19.1075C3.81218 18.2759 4.88666 17.1937 5.71054 13.6875C5.73212 13.5954 5.78395 13.5133 5.85763 13.4546C5.9313 13.3959 6.02251 13.3639 6.11647 13.3639C6.21043 13.3639 6.30163 13.3959 6.37531 13.4546C6.44898 13.5133 6.50081 13.5954 6.5224 13.6875C7.348 17.1937 8.42248 18.2759 11.9034 19.1075C11.9946 19.1302 12.0756 19.1833 12.1331 19.2581C12.1906 19.333 12.2214 19.4252 12.2204 19.5198C12.2194 19.6145 12.1867 19.706 12.1276 19.7796C12.0685 19.8532 11.9865 19.9045 11.8948 19.9253V19.9253Z" fill="#BF2A26"/>
</g>
<defs>
<clipPath id="clip0_4_114">
<rect width="46" height="56" fill="white"/>
</clipPath>
</defs>
</svg>
